<?xml version="1.0" encoding="utf-8"?>
<!-- Generator: Adobe Illustrator 16.0.0, SVG Export Plug-In . SVG Version: 6.00 Build 0)  -->
<!DOCTYPE svg PUBLIC "-//W3C//DTD SVG 1.1//EN" "http://www.w3.org/Graphics/SVG/1.1/DTD/svg11.dtd">
<svg version="1.1" id="Vrstva_1" xmlns="http://www.w3.org/2000/svg" xmlns:xlink="http://www.w3.org/1999/xlink" x="0px" y="0px"
	 width="609.577px" height="905.955px" viewBox="0 0 609.577 905.955" enable-background="new 0 0 609.577 905.955"
	 xml:space="preserve">
<g>
	<g>
		<g>
			<path fill="#FF713E" d="M67.108,724.703c0.856,16.6,5.836,33.667,12.314,48.87c4.905,11.51,10.667,23.378,18.125,33.506
				c4.838,6.569,12.904,9.844,20.523,5.381c6.494-3.804,10.241-13.924,5.381-20.523c-6.385-8.669-11.264-18.627-15.8-28.338
				c-0.318-0.682-3.306-7.676-1.716-3.756c-0.646-1.595-1.207-3.224-1.766-4.851c-1.389-4.045-2.524-8.177-3.592-12.316
				c-1.03-3.993-1.906-8.026-2.678-12.077c-0.291-1.524-0.538-3.057-0.773-4.59c0.697,4.554,0.036-0.238-0.019-1.306
				c-0.421-8.163-6.505-15-15-15C74.25,709.703,66.687,716.531,67.108,724.703L67.108,724.703z"/>
		</g>
	</g>
	<g>
		<g>
			<path fill="#FF713E" d="M210.632,51.377c25.233,105.599,54.522,210.401,93.187,311.94
				c34.52,90.653,76.784,178.007,125.094,262.09c16.06,27.953,32.743,55.544,49.825,82.883c4.324,6.92,13.312,9.605,20.523,5.381
				c6.893-4.038,9.717-13.583,5.381-20.523c-51.98-83.188-99.766-168.978-139.457-258.751c-2.31-5.224-4.586-10.461-6.842-15.707
				c-1.132-2.63-2.252-5.264-3.37-7.898c-1.843-4.345,1.114,2.654-0.716-1.7c-0.741-1.765-1.478-3.531-2.213-5.298
				c-4.627-11.113-9.121-22.28-13.516-33.487c-8.996-22.944-17.481-46.087-25.554-69.372
				c-17.408-50.212-32.715-101.135-46.678-152.406c-9.501-34.889-18.333-69.958-26.737-105.126
				c-1.9-7.951-10.776-12.588-18.452-10.477C213.03,35.147,208.733,43.431,210.632,51.377L210.632,51.377z"/>
		</g>
	</g>
	<g>
		<g>
			<path fill="#FF713E" d="M209.632,41.508c-15.365,66.765-27.268,134.381-39.164,201.831
				c-15.052,85.338-29.101,170.86-42.243,256.513c-10.418,67.896-20.817,135.929-28.136,204.242
				c-0.544,5.078-1.056,10.159-1.523,15.245c-0.75,8.155,7.391,15,15,15c8.743,0,14.251-6.861,15-15
				c2.408-26.175,5.785-52.265,9.255-78.316c0.128-0.965,0.257-1.93,0.387-2.895c0.466-3.48-0.483,3.587-0.011,0.085
				c0.267-1.981,0.536-3.962,0.806-5.943c0.6-4.411,1.208-8.821,1.819-13.231c1.235-8.907,2.495-17.812,3.77-26.713
				c2.754-19.237,5.593-38.462,8.486-57.678c12.857-85.419,26.743-170.688,41.504-255.797
				c12.358-71.256,24.942-142.574,40.367-213.243c1.175-5.381,2.378-10.756,3.613-16.124c1.832-7.961-2.349-16.216-10.477-18.452
				C220.458,28.935,211.466,33.541,209.632,41.508L209.632,41.508z"/>
		</g>
	</g>
	<g>
		<g>
			<path fill="#FF713E" d="M59.244,833.182c24.411-8.889,49.289-16.473,74.68-22.017c5.348-1.168,10.721-2.217,16.108-3.187
				c2.598-0.469,5.203-0.899,7.81-1.318c1.281-0.205,2.563-0.398,3.846-0.592c0.67-0.102,6.178-0.87,2.334-0.354
				c9.97-1.338,19.998-2.238,30.044-2.738c17.694-0.882,35.455-0.256,53.037,1.911c0.917,0.113,4.402,0.593-0.106-0.024
				c0.96,0.131,1.919,0.272,2.878,0.413c1.896,0.279,3.787,0.586,5.677,0.902c3.998,0.669,7.978,1.441,11.944,2.275
				c7.303,1.536,14.54,3.382,21.711,5.443c13.357,3.842,26.432,8.6,39.311,13.81c1.476,0.597,2.948,1.203,4.419,1.812
				c1.133,0.469,6.414,2.696,1.507,0.621c3.102,1.313,6.193,2.647,9.282,3.991c5.788,2.517,11.557,5.076,17.337,7.61
				c22.592,9.905,45.539,19.841,69.955,24.229c42.289,7.599,82.856-3.066,120.167-23.313c7.178-3.896,9.413-13.64,5.381-20.523
				c-4.227-7.215-13.335-9.281-20.523-5.381c-3.648,1.98-7.336,3.885-11.067,5.705c-1.782,0.869-3.581,1.705-5.385,2.529
				c-0.882,0.402-1.77,0.795-2.656,1.186c-3.915,1.729,1.638-0.658-0.792,0.352c-6.838,2.839-13.845,5.267-20.972,7.271
				c-6.445,1.813-13.012,3.183-19.638,4.137c5.558-0.801-0.009-0.025-1.306,0.111c-1.488,0.157-2.98,0.279-4.473,0.388
				c-3.163,0.231-6.334,0.328-9.505,0.339c-5.907,0.021-11.811-0.39-17.672-1.114c-2.813-0.348,4.026,0.562,1.223,0.161
				c-0.689-0.099-1.378-0.206-2.065-0.313c-1.373-0.216-2.741-0.459-4.107-0.71c-2.955-0.545-5.891-1.19-8.812-1.892
				c-11.381-2.731-22.454-6.624-33.327-10.926c-2.681-1.061-5.348-2.155-8.009-3.265c-0.99-0.413-3.624-1.526,0.901,0.385
				c-0.673-0.284-1.345-0.57-2.017-0.856c-1.577-0.672-3.15-1.351-4.724-2.031c-5.731-2.481-11.441-5.014-17.159-7.525
				c-12.984-5.704-26.022-11.312-39.288-16.332c-29.332-11.101-59.769-18.23-91.053-20.79
				c-62.151-5.086-124.821,9.555-182.872,30.694c-7.675,2.795-12.777,10.087-10.477,18.451
				C42.828,830.109,51.554,835.983,59.244,833.182L59.244,833.182z"/>
		</g>
	</g>
	<g>
		<g>
			<path fill="#FF713E" d="M77.915,733.803c48.869,10.969,97.824,20.154,147.508,26.523c27.546,3.532,55.139,6.759,82.727,9.948
				c61.293,7.087,122.826,12.22,184.263,17.862c6.392,0.587,12.783,1.173,19.175,1.759c8.156,0.748,15-7.389,15-15
				c0-8.741-6.86-14.254-15-15c-66.299-6.077-132.706-11.579-198.864-19.097c-24.186-2.748-48.358-5.661-72.519-8.623
				c-5.875-0.72-11.75-1.458-17.621-2.214c-2.776-0.358-5.551-0.724-8.326-1.094c3.448,0.46-1.026-0.142-1.425-0.195
				c-1.775-0.242-3.549-0.49-5.324-0.739c-10.822-1.516-21.622-3.18-32.398-4.994c-24.911-4.193-49.651-9.333-74.322-14.751
				c-4.969-1.091-9.935-2.199-14.898-3.313c-7.971-1.789-16.208,2.316-18.452,10.477C65.35,722.945,69.937,732.013,77.915,733.803
				L77.915,733.803z"/>
		</g>
	</g>
	<g>
		<g>
			<path fill="#FF713E" d="M477.4,861.915c16.039-15.196,28.982-33.683,38.132-53.773c4.245-9.323,8.363-19.184,10.519-29.258
				c1.71-7.987-2.259-16.191-10.477-18.451c-7.532-2.072-16.74,2.479-18.451,10.477c-0.477,2.228-1.125,4.423-1.782,6.602
				c-0.757,2.51-1.605,4.99-2.494,7.455c-0.548,1.521-1.132,3.028-1.725,4.533c-0.274,0.693-1.668,4.027-0.118,0.368
				c-0.444,1.051-0.91,2.092-1.376,3.133c-8.509,19.028-18.925,33.949-33.44,47.702c-5.936,5.623-5.662,15.551,0,21.213
				C462.083,867.81,471.47,867.535,477.4,861.915L477.4,861.915z"/>
		</g>
	</g>
	<g>
		<g>
			<path fill="#FF713E" d="M122.308,666.687c3.623,0.453,7.244,0.922,10.863,1.404c-5.112-0.682,1.26,0.177,2.451,0.342
				c2.174,0.301,4.348,0.607,6.521,0.917c8.027,1.145,16.046,2.351,24.06,3.584c17.567,2.702,35.112,5.552,52.661,8.367
				c44.565,7.149,89.179,13.926,133.925,19.851c45.862,6.073,91.846,11.205,137.901,15.566c8.154,0.772,15-7.407,15-15
				c0-8.76-6.863-14.229-15-15c-98.792-9.356-190.924-22.696-288.925-38.368c-26.435-4.228-52.891-8.344-79.458-11.663
				c-8.134-1.017-15,7.593-15,15C107.308,660.63,114.196,665.673,122.308,666.687L122.308,666.687z"/>
		</g>
	</g>
</g>
</svg>
