<?xml version="1.0" standalone="no"?>
<!DOCTYPE svg PUBLIC "-//W3C//DTD SVG 20010904//EN"
 "http://www.w3.org/TR/2001/REC-SVG-20010904/DTD/svg10.dtd">
<svg version="1.0" xmlns="http://www.w3.org/2000/svg"
 width="906.000000pt" height="906.000000pt" viewBox="0 0 906.000000 906.000000"
 preserveAspectRatio="xMidYMid meet">
<metadata>
Created by potrace 1.11, written by Peter Selinger 2001-2013
</metadata>
<g transform="translate(0.000000,906.000000) scale(0.100000,-0.100000)"
fill="#000000" stroke="none">
<path d="M3695 8750 c-17 -4 -43 -15 -58 -24 -27 -19 -69 -78 -65 -93 1 -4 -4
-33 -12 -63 -7 -30 -15 -64 -16 -75 -1 -11 -3 -20 -4 -20 -2 0 -4 -9 -13 -55
-3 -14 -13 -58 -21 -97 -9 -40 -18 -87 -21 -105 -4 -18 -11 -53 -16 -78 -6
-25 -12 -54 -15 -65 -2 -11 -6 -31 -9 -45 -2 -14 -7 -38 -10 -55 -3 -16 -7
-39 -9 -50 -2 -11 -18 -92 -36 -180 -17 -88 -33 -167 -35 -176 -2 -9 -6 -34
-10 -55 -11 -73 -16 -99 -20 -114 -2 -8 -7 -28 -10 -45 -2 -16 -7 -41 -10 -55
-3 -14 -7 -41 -10 -60 -3 -19 -7 -46 -10 -60 -3 -14 -8 -38 -11 -55 -2 -16 -7
-41 -9 -55 -3 -14 -7 -36 -10 -50 -3 -14 -8 -41 -11 -60 -2 -19 -9 -57 -15
-85 -6 -27 -12 -63 -15 -80 -2 -16 -6 -46 -10 -65 -3 -19 -7 -42 -9 -50 -1 -8
-5 -31 -9 -50 -4 -19 -9 -46 -11 -60 -8 -56 -20 -121 -40 -235 -8 -44 -17 -97
-21 -119 -3 -21 -8 -48 -10 -60 -2 -11 -7 -41 -10 -66 -3 -25 -8 -48 -10 -51
-2 -4 -6 -24 -9 -45 -4 -22 -18 -106 -32 -189 -14 -82 -26 -161 -28 -175 -3
-24 -9 -62 -20 -120 -3 -14 -7 -40 -10 -57 -7 -47 -14 -88 -21 -125 -6 -35
-12 -70 -19 -117 -2 -17 -9 -56 -14 -88 -15 -84 -19 -112 -26 -168 -4 -27 -9
-58 -11 -68 -3 -10 -7 -31 -10 -47 -6 -41 -10 -73 -23 -150 -5 -36 -13 -85
-16 -110 -3 -25 -8 -53 -11 -62 -3 -9 -7 -32 -9 -50 -2 -18 -6 -51 -10 -73 -3
-22 -8 -52 -11 -67 -2 -16 -7 -43 -10 -60 -3 -18 -7 -46 -9 -63 -2 -16 -10
-73 -19 -125 -8 -52 -17 -113 -21 -135 -6 -43 -12 -83 -20 -130 -3 -16 -8 -48
-10 -70 -3 -22 -8 -51 -10 -65 -2 -14 -6 -43 -10 -65 -3 -23 -7 -52 -10 -65
-2 -13 -7 -46 -10 -74 -3 -28 -8 -58 -10 -66 -2 -8 -7 -35 -10 -60 -3 -25 -8
-57 -10 -71 -5 -26 -11 -73 -20 -144 -3 -22 -7 -47 -10 -55 -2 -8 -7 -44 -10
-80 -4 -36 -9 -74 -12 -85 -4 -21 -8 -46 -18 -139 -4 -33 -9 -68 -11 -79 -6
-31 -24 -168 -29 -218 -2 -24 -7 -64 -10 -89 -5 -45 -7 -61 -20 -175 -4 -33
-8 -67 -10 -75 -1 -8 -6 -47 -10 -87 -8 -80 -3 -77 -98 -52 -72 19 -134 14
-172 -16 -57 -42 -68 -74 -62 -174 3 -47 8 -99 11 -116 3 -16 9 -45 12 -63 5
-35 53 -195 74 -247 6 -16 11 -30 10 -30 -1 0 21 -49 49 -108 34 -73 46 -109
38 -112 -377 -123 -400 -133 -438 -185 -18 -23 -25 -65 -21 -117 1 -13 20 -41
41 -62 58 -58 93 -61 222 -16 94 33 342 111 379 120 8 2 89 23 180 45 91 23
176 43 190 45 14 2 68 11 120 20 52 10 113 19 135 21 22 1 60 5 85 8 131 17
443 22 560 10 25 -2 52 -5 60 -5 47 -2 188 -23 275 -41 55 -11 105 -21 110
-22 6 -1 15 -4 20 -7 6 -4 27 -10 49 -13 44 -8 336 -104 351 -115 6 -4 31 -14
58 -21 26 -7 47 -17 47 -21 0 -5 7 -9 15 -9 8 0 104 -39 213 -86 316 -138 387
-167 502 -206 79 -27 178 -55 225 -64 11 -2 34 -7 50 -10 139 -31 429 -36 549
-9 12 3 32 7 46 9 158 26 387 107 572 203 75 38 90 50 107 87 12 23 21 54 21
68 0 44 -29 96 -67 123 -57 38 -103 34 -210 -19 -114 -57 -251 -116 -268 -116
-9 0 -5 19 8 32 35 38 159 299 177 373 1 6 6 20 11 33 31 81 34 152 9 195 -24
40 -75 76 -105 76 -11 -1 -40 1 -65 4 -42 5 -101 11 -230 22 -30 3 -77 7 -105
10 -27 2 -76 7 -107 10 -32 3 -82 7 -110 10 -29 3 -84 8 -123 10 -38 3 -92 8
-120 11 -62 7 -121 12 -205 19 -36 3 -82 8 -104 10 -21 3 -66 7 -100 10 -33 3
-88 8 -121 11 -33 4 -76 8 -95 10 -19 2 -57 6 -85 9 -27 3 -75 8 -105 11 -30
3 -68 7 -85 9 -16 2 -57 6 -90 9 -33 3 -73 8 -90 10 -16 2 -57 7 -90 10 -69 8
-216 25 -260 31 -16 2 -54 7 -82 10 -112 11 -159 16 -183 20 -14 3 -50 7 -80
11 -30 3 -71 7 -90 10 -19 2 -55 7 -80 10 -25 3 -76 9 -115 15 -38 5 -86 11
-105 14 -19 2 -53 7 -75 10 -22 4 -51 8 -65 10 -14 2 -38 6 -55 9 -16 3 -88
14 -160 26 -71 11 -143 23 -160 26 -16 4 -39 8 -50 9 -21 4 -133 26 -150 30
-5 1 -22 5 -37 8 -16 4 -40 9 -54 12 -21 5 -25 10 -20 33 3 15 8 59 11 97 4
39 9 86 11 105 7 53 12 99 19 160 3 30 9 58 13 62 4 3 41 0 82 -7 41 -7 96
-15 121 -18 25 -3 88 -12 140 -21 52 -8 108 -17 124 -20 17 -2 44 -7 60 -10
17 -3 134 -22 260 -41 127 -20 242 -38 256 -40 14 -3 41 -7 60 -9 45 -6 107
-16 144 -23 17 -3 44 -7 60 -8 17 -2 46 -6 65 -10 19 -3 46 -8 60 -10 44 -6
105 -15 130 -20 14 -3 48 -8 75 -11 28 -3 61 -8 75 -10 14 -2 43 -6 65 -9 22
-3 58 -8 80 -11 22 -3 54 -8 70 -10 52 -6 109 -14 145 -20 51 -8 145 -21 290
-39 19 -2 51 -6 70 -9 19 -3 76 -10 125 -16 50 -5 108 -12 130 -15 22 -3 65
-8 95 -11 30 -3 66 -7 80 -9 14 -2 54 -6 90 -10 36 -3 83 -8 105 -11 115 -13
200 -22 280 -29 33 -3 76 -7 95 -10 124 -17 160 -16 201 7 24 13 51 41 66 66
43 73 34 101 -110 334 -68 112 -142 232 -162 268 -21 36 -53 88 -71 117 -19
28 -34 56 -34 62 0 6 -5 11 -11 11 -5 0 -8 4 -4 9 3 5 1 12 -4 15 -8 5 -26 35
-94 156 -10 19 -36 64 -57 100 -103 178 -295 534 -291 539 1 2 -1 7 -6 10 -10
7 -66 113 -209 401 -123 247 -284 584 -284 595 0 2 -15 37 -34 77 -19 40 -51
111 -71 158 -20 47 -43 99 -50 115 -7 17 -28 66 -45 110 -18 44 -37 91 -43
105 -5 14 -11 30 -12 35 -2 6 -12 30 -23 55 -27 60 -139 353 -197 515 -25 72
-50 139 -55 150 -5 11 -18 49 -30 85 -11 36 -25 74 -30 85 -5 11 -48 142 -96
290 -47 149 -94 295 -104 325 -23 68 -163 542 -185 625 -15 54 -32 117 -56
200 -12 44 -35 129 -58 220 -12 44 -23 87 -25 95 -18 62 -120 463 -127 495
-28 136 -81 319 -101 349 -34 53 -95 79 -153 66z m68 -903 c10 -40 19 -79 21
-87 2 -8 27 -100 55 -203 28 -104 53 -196 54 -205 1 -9 5 -21 8 -27 4 -5 10
-23 14 -40 5 -16 9 -34 11 -40 2 -5 5 -19 8 -30 3 -11 10 -36 15 -55 9 -35 77
-264 111 -375 10 -33 30 -98 43 -145 42 -140 226 -694 237 -712 5 -10 10 -23
10 -30 0 -11 70 -208 90 -253 5 -11 19 -49 31 -85 12 -36 25 -69 30 -74 5 -6
9 -18 9 -28 0 -10 4 -26 10 -36 8 -14 27 -57 35 -82 1 -3 5 -14 10 -25 4 -11
28 -72 52 -135 73 -189 266 -637 363 -845 77 -164 90 -194 90 -204 0 -6 3 -11
8 -11 4 0 18 -27 32 -60 14 -33 28 -60 33 -60 4 0 7 -6 7 -13 0 -18 189 -391
353 -697 94 -176 135 -249 176 -318 17 -29 31 -55 31 -57 0 -4 104 -184 130
-225 8 -14 107 -181 140 -239 52 -90 75 -127 80 -131 3 -3 11 -16 19 -30 8
-14 21 -35 29 -48 15 -23 15 -23 -24 -18 -21 3 -68 8 -104 11 -36 3 -83 8
-105 11 -22 3 -60 7 -85 10 -25 2 -61 6 -80 9 -19 2 -60 7 -90 10 -30 4 -86
11 -125 16 -38 5 -92 12 -120 15 -27 3 -63 7 -80 9 -16 2 -50 6 -75 10 -25 3
-56 7 -70 9 -14 2 -52 7 -85 11 -33 3 -71 9 -85 11 -14 3 -43 7 -65 9 -22 2
-56 7 -75 10 -19 3 -51 7 -70 10 -19 2 -69 9 -110 16 -41 7 -87 13 -102 13
-16 1 -28 3 -28 6 0 3 -10 5 -22 6 -25 0 -107 11 -152 19 -15 3 -49 8 -75 10
-25 2 -46 5 -46 5 0 2 -30 7 -81 15 -22 3 -52 8 -65 10 -13 2 -42 6 -63 10
-21 3 -48 7 -60 10 -12 2 -41 7 -66 10 -25 3 -58 7 -75 10 -16 3 -43 7 -60 10
-16 3 -77 12 -135 21 -58 8 -116 17 -130 20 -14 3 -38 7 -55 9 -16 2 -43 6
-60 9 -16 3 -47 8 -69 11 -21 4 -46 8 -55 10 -9 1 -41 6 -71 10 -30 4 -64 9
-75 12 -22 4 -82 13 -130 18 -16 1 -30 4 -30 5 0 1 -20 3 -44 5 -24 2 -45 6
-46 7 -2 2 1 30 6 63 4 33 11 83 14 110 3 28 8 57 10 65 2 8 7 39 10 69 4 30
8 62 10 71 2 9 6 41 10 70 4 29 8 61 10 70 2 9 6 41 10 70 4 29 9 62 11 74 5
20 11 67 18 126 2 14 6 45 10 70 4 25 9 56 11 70 3 14 12 72 21 130 9 58 17
116 19 130 11 79 17 120 26 165 5 28 11 71 14 96 3 26 8 57 10 70 3 13 7 41
10 64 7 44 7 48 30 190 9 55 18 116 21 135 3 19 7 42 9 50 2 8 7 38 11 65 3
28 7 57 9 65 1 8 6 35 10 60 4 25 9 54 11 65 2 10 6 37 9 60 4 22 17 105 30
185 14 80 27 163 30 185 4 22 8 47 10 55 2 8 7 33 10 55 3 23 7 50 9 62 3 12
8 43 12 70 3 26 8 57 10 68 5 28 22 123 29 165 30 170 36 209 40 240 3 19 7
46 10 60 11 53 15 76 20 105 2 17 6 41 9 55 3 14 7 39 9 55 3 17 15 84 27 150
12 66 23 131 25 145 9 56 14 88 24 140 6 30 13 69 16 85 2 17 7 40 9 51 2 12
7 39 10 60 4 22 11 62 16 89 10 54 17 92 26 144 3 18 8 43 10 55 2 11 8 46 14
76 6 30 12 66 15 80 3 14 7 36 10 50 3 14 7 36 10 50 3 14 9 48 15 75 5 28 11
60 14 72 2 11 8 43 12 70 3 26 9 52 12 58 3 5 7 23 9 40 6 58 25 137 31 130 4
-4 15 -39 25 -78z m-1193 -6191 c14 -3 45 -10 70 -15 51 -11 91 -19 135 -27
17 -3 73 -14 125 -24 130 -26 209 -40 245 -45 17 -1 71 -10 120 -18 86 -15
128 -22 205 -33 19 -3 46 -7 60 -9 14 -3 48 -7 75 -11 28 -3 61 -7 75 -10 14
-2 43 -7 65 -9 22 -3 58 -8 80 -11 22 -3 65 -7 95 -10 30 -3 66 -8 80 -10 26
-5 93 -13 145 -19 108 -10 172 -18 190 -21 11 -2 43 -7 70 -9 96 -9 130 -13
165 -19 32 -5 121 -14 195 -21 38 -3 140 -15 180 -20 17 -3 61 -7 98 -10 37
-3 82 -7 100 -10 18 -2 61 -7 97 -10 36 -3 81 -7 100 -10 19 -2 69 -7 110 -10
41 -3 93 -7 115 -10 22 -3 69 -7 105 -10 36 -3 89 -8 119 -11 29 -3 77 -7 105
-9 28 -3 74 -7 101 -9 28 -3 84 -8 125 -11 41 -4 91 -9 110 -11 19 -3 64 -7
99 -9 35 -3 65 -6 67 -8 2 -1 -2 -14 -9 -27 -7 -14 -14 -28 -15 -32 -4 -15
-37 -83 -43 -88 -3 -3 -11 -20 -18 -37 -8 -18 -16 -33 -20 -33 -3 0 -12 -12
-19 -27 -16 -37 -99 -145 -159 -210 l-49 -51 -69 4 c-74 4 -106 8 -169 25 -21
6 -40 8 -43 5 -3 -3 -18 1 -34 10 -16 8 -29 12 -29 10 0 -3 -19 2 -42 10 -24
9 -51 17 -60 19 -9 2 -27 9 -40 16 -13 7 -24 12 -25 11 -3 -2 -2 -2 -108 37
-44 16 -143 57 -220 91 -175 78 -382 165 -415 175 -14 4 -29 11 -35 15 -13 9
-222 81 -255 87 -13 2 -28 10 -32 16 -4 7 -8 9 -8 5 0 -4 -21 -1 -47 7 -27 8
-59 16 -73 19 -14 3 -65 15 -115 26 -144 32 -281 52 -445 66 -140 12 -487 6
-580 -10 -14 -3 -50 -7 -80 -10 -30 -3 -66 -7 -80 -10 -14 -2 -43 -7 -65 -10
-22 -2 -96 -17 -165 -31 -69 -14 -135 -27 -148 -29 -21 -3 -30 11 -86 123 -56
112 -91 205 -111 295 -7 31 -8 31 85 12z"/>
</g>
</svg>
